# xmcd
#
# Track frame offsets: 
#        150
#        12100
#        31777
#        43770
#        61855
#        73897
#        86307
#        99692
#        111990
#        127897
#
# Disc length: 1809 seconds
#
# Revision: 1
# Processed by: cddbd v1.5.2PL0 Copyright (c) Steve Scherf et al.
# Submitted via: ExactAudioCopy v0.99pb5
#
DISCID=7b070f0a
DTITLE=Rita Reys - Rita Reys Meets Oliver Nelson
DYEAR=1965
DGENRE=Vocal
TTITLE0=Satin Doll
TTITLE1=The Very Thought Of You
TTITLE2=Wives And Lovers
TTITLE3=Ill Wind
TTITLE4=It Could Happen To You
TTITLE5=The Second Time Around
TTITLE6=Quiet Nights
TTITLE7=Call Me Irresponsible
TTITLE8=You Don't Know What Love Is
TTITLE9=If I Were A Bell
EXTD=
EXTT0=
EXTT1=
EXTT2=
EXTT3=
EXTT4=
EXTT5=
EXTT6=
EXTT7=
EXTT8=
EXTT9=
PLAYORDER=
